<mxfile host="app.diagrams.net" agent="Mozilla/5.0 (Macintosh; Intel Mac OS X 10_15_7) AppleWebKit/537.36 (KHTML, like Gecko) Chrome/138.0.0.0 Safari/537.36" version="28.1.0">
  <diagram name="Página-1" id="pm-q0qgyHUGUlnBCRJOw">
    <mxGraphModel dx="553" dy="647" grid="1" gridSize="10" guides="1" tooltips="1" connect="1" arrows="1" fold="1" page="1" pageScale="1" pageWidth="827" pageHeight="1169" math="0" shadow="0">
      <root>
        <mxCell id="0" />
        <mxCell id="1" parent="0" />
        <mxCell id="F7oJyhly9HJpChA34aWp-3" value="" style="edgeStyle=none;curved=1;rounded=0;orthogonalLoop=1;jettySize=auto;html=1;fontSize=12;startSize=8;endSize=8;" edge="1" parent="1" source="F7oJyhly9HJpChA34aWp-1" target="F7oJyhly9HJpChA34aWp-2">
          <mxGeometry relative="1" as="geometry" />
        </mxCell>
        <mxCell id="F7oJyhly9HJpChA34aWp-1" value="inicio" style="ellipse;whiteSpace=wrap;html=1;aspect=fixed;" vertex="1" parent="1">
          <mxGeometry x="250" y="330" width="80" height="80" as="geometry" />
        </mxCell>
        <mxCell id="F7oJyhly9HJpChA34aWp-5" value="" style="edgeStyle=none;curved=1;rounded=0;orthogonalLoop=1;jettySize=auto;html=1;fontSize=12;startSize=8;endSize=8;" edge="1" parent="1" source="F7oJyhly9HJpChA34aWp-2" target="F7oJyhly9HJpChA34aWp-4">
          <mxGeometry relative="1" as="geometry" />
        </mxCell>
        <mxCell id="F7oJyhly9HJpChA34aWp-2" value="Mostrar mensaje : &quot;Por favor, ingrese el radio del círculo&quot;" style="shape=parallelogram;perimeter=parallelogramPerimeter;whiteSpace=wrap;html=1;fixedSize=1;" vertex="1" parent="1">
          <mxGeometry x="190" y="460" width="200" height="110" as="geometry" />
        </mxCell>
        <mxCell id="F7oJyhly9HJpChA34aWp-10" value="" style="edgeStyle=none;curved=1;rounded=0;orthogonalLoop=1;jettySize=auto;html=1;fontSize=12;startSize=8;endSize=8;" edge="1" parent="1" source="F7oJyhly9HJpChA34aWp-4" target="F7oJyhly9HJpChA34aWp-11">
          <mxGeometry relative="1" as="geometry">
            <mxPoint x="283.9473684210526" y="800" as="targetPoint" />
          </mxGeometry>
        </mxCell>
        <mxCell id="F7oJyhly9HJpChA34aWp-4" value="definir y asignar a la variable área el resultado de pi * radio^2" style="rounded=1;whiteSpace=wrap;html=1;" vertex="1" parent="1">
          <mxGeometry x="200" y="620" width="190" height="120" as="geometry" />
        </mxCell>
        <mxCell id="F7oJyhly9HJpChA34aWp-14" value="" style="edgeStyle=none;curved=1;rounded=0;orthogonalLoop=1;jettySize=auto;html=1;fontSize=12;startSize=8;endSize=8;" edge="1" parent="1" source="F7oJyhly9HJpChA34aWp-11" target="F7oJyhly9HJpChA34aWp-13">
          <mxGeometry relative="1" as="geometry" />
        </mxCell>
        <mxCell id="F7oJyhly9HJpChA34aWp-11" value="&lt;meta charset=&quot;utf-8&quot;&gt;&lt;span style=&quot;color: rgb(255, 255, 255); font-family: Helvetica; font-size: 12px; font-style: normal; font-variant-ligatures: normal; font-variant-caps: normal; font-weight: 400; letter-spacing: normal; orphans: 2; text-align: center; text-indent: 0px; text-transform: none; widows: 2; word-spacing: 0px; -webkit-text-stroke-width: 0px; white-space: normal; background-color: rgb(27, 29, 30); text-decoration-thickness: initial; text-decoration-style: initial; text-decoration-color: initial; display: inline !important; float: none;&quot;&gt;Mostrar mensaje: &quot;El área del círculo con radio&quot;, radio, &quot;es&quot;, area&lt;/span&gt;" style="shape=parallelogram;perimeter=parallelogramPerimeter;whiteSpace=wrap;html=1;fixedSize=1;" vertex="1" parent="1">
          <mxGeometry x="186.05" y="790" width="203.95" height="130" as="geometry" />
        </mxCell>
        <mxCell id="F7oJyhly9HJpChA34aWp-13" value="Fin" style="ellipse;whiteSpace=wrap;html=1;" vertex="1" parent="1">
          <mxGeometry x="250.00499999999997" y="960" width="80" height="80" as="geometry" />
        </mxCell>
      </root>
    </mxGraphModel>
  </diagram>
</mxfile>
